# xmcd
#
# Track frame offsets:
#	150
#	13009
#	26685
#	41162
#	56480
#	72111
#	87045
#	100491
#	115991
#	130004
#	144193
#	158752
#
# Disc length: 2334 seconds
#
# Revision: 0
# Processed by: cddbd v1.5.2PL0 Copyright (c) Steve Scherf et al.
# Submitted via: EasyCDDAExtractor 12.0.0.1
#
DISCID=98091c0c
DTITLE=Maria Cecília and Rodolfo - Ao Vivo 2
DYEAR=2010
DGENRE=Country
TTITLE0=Os dias vão
TTITLE1=Amor transparente
TTITLE2=Só passando pelo que eu passei
TTITLE3=Tenho tanto amor
TTITLE4=Estranho love
TTITLE5=Como eu quero
TTITLE6=De graça
TTITLE7=Não vale a pena te esquecer
TTITLE8=Profecia
TTITLE9=Coração teimoso
TTITLE10=Presente de Deus
TTITLE11=Se vira
EXTD=
EXTT0=
EXTT1=
EXTT2=
EXTT3=
EXTT4=
EXTT5=
EXTT6=
EXTT7=
EXTT8=
EXTT9=
EXTT10=
EXTT11=
PLAYORDER=
